<svg width="20" height="20" viewBox="0 0 20 20" fill="none" xmlns="http://www.w3.org/2000/svg">
<g clip-path="url(#clip0_12_58)">
<g clip-path="url(#clip1_12_58)">
<path d="M17.7454 20H2.25462C1.0102 20 0 18.9898 0 17.7454V2.25462C0 1.0102 1.0102 0 2.25462 0H17.7454C18.9898 0 20 1.0102 20 2.25462V17.7454C20 18.9898 18.9898 20 17.7454 20" fill="#DD742E"/>
<path d="M4.31804 16.8913V6.95188H3.21702L4.64149 3.10867H7.40281V16.8913H4.31804Z" fill="white"/>
<path d="M16.3129 7.81708H11.4786V5.79668H16.5312V3.10867H8.44965V10.4509H13.6281V14.2925H11.4452V12.4888H8.45124V16.5838C8.45124 16.7543 8.58986 16.8913 8.75876 16.8913H16.3145C16.485 16.8913 16.622 16.7527 16.622 16.5838V8.1246C16.622 7.95411 16.4834 7.81708 16.3145 7.81708H16.3129Z" fill="white"/>
</g>
</g>
<defs>
<clipPath id="clip0_12_58">
<rect width="20" height="20" fill="white"/>
</clipPath>
<clipPath id="clip1_12_58">
<rect width="20" height="20" fill="white"/>
</clipPath>
</defs>
</svg>
