<svg width="20" height="20" viewBox="0 0 20 20" fill="none" xmlns="http://www.w3.org/2000/svg">
<g clip-path="url(#clip0_12_60)">
<g clip-path="url(#clip1_12_60)">
<path d="M17.7468 20.0016H2.2548C1.00868 20.0016 0 18.9929 0 17.7468V2.2548C0 1.01028 1.00868 0 2.2548 0H17.7468C18.9913 0 20.0016 1.01028 20.0016 2.2548V17.7468C20.0016 18.9929 18.9929 20.0016 17.7468 20.0016" fill="#D92B35"/>
<path d="M4.23711 16.8911V6.95084H3.136L4.56218 3.10892H7.32212V16.8911H4.23711Z" fill="white"/>
<path d="M16.6664 11.2453C16.6425 11.078 16.6011 10.933 16.5405 10.8119C16.48 10.6924 16.3987 10.5888 16.2967 10.5043C16.1947 10.4199 16.0656 10.337 15.9095 10.2526L14.99 9.81914L15.9095 9.33153C16.1852 9.16421 16.3812 8.97777 16.4959 8.77221C16.6106 8.56824 16.6664 8.2607 16.6664 7.85276V3.41646C16.6664 3.24596 16.5278 3.10892 16.3589 3.10892H8.69412C8.52362 3.10892 8.38658 3.24755 8.38658 3.41646V7.85276C8.38658 8.24795 8.44554 8.5539 8.55868 8.76265C8.67341 8.97459 8.86941 9.16262 9.14508 9.33153L10.0645 9.81914L9.14508 10.2526C8.83116 10.4199 8.6256 10.6191 8.52202 10.8469C8.42004 11.0764 8.36905 11.4126 8.36905 11.8588V16.5835C8.36905 16.754 8.50768 16.8911 8.67659 16.8911H16.3955C16.566 16.8911 16.703 16.7525 16.703 16.5835V11.8588C16.703 11.6182 16.6903 11.4142 16.6664 11.2453ZM13.6356 14.0403C13.6356 14.2108 13.4969 14.3479 13.328 14.3479H11.7441C11.5736 14.3479 11.4365 14.2092 11.4365 14.0403V11.282C11.4365 11.1115 11.5752 10.9744 11.7441 10.9744H13.328C13.4985 10.9744 13.6356 11.1131 13.6356 11.282V14.0403ZM13.6356 8.36428C13.6356 8.53478 13.4969 8.67182 13.328 8.67182H11.7441C11.5736 8.67182 11.4365 8.53319 11.4365 8.36428V5.95172C11.4365 5.78121 11.5752 5.64417 11.7441 5.64417H13.328C13.4985 5.64417 13.6356 5.78281 13.6356 5.95172V8.36428Z" fill="white"/>
</g>
</g>
<defs>
<clipPath id="clip0_12_60">
<rect width="20" height="20" fill="white"/>
</clipPath>
<clipPath id="clip1_12_60">
<rect width="20" height="20.0016" fill="white"/>
</clipPath>
</defs>
</svg>
