<svg width="30" height="32" viewBox="0 0 30 32" fill="none" xmlns="http://www.w3.org/2000/svg">
<path d="M0 9C0 4.02944 4.02944 0 9 0H21C25.9706 0 30 4.02944 30 9V21C30 25.9706 25.9706 30 21 30H9C4.02944 30 0 25.9706 0 21V9Z" fill="url(#paint0_linear_5266_9604)"/>
<g filter="url(#filter0_i_5266_9604)">
<rect x="1.5" y="1.5" width="27" height="27" rx="7.5" fill="url(#paint1_linear_5266_9604)"/>
</g>
<g filter="url(#filter1_d_5266_9604)">
<path d="M19.9587 19.902C19.9587 21.0082 19.639 21.8887 19.0029 22.5581C18.3599 23.2204 17.5048 23.5497 16.4413 23.5497H13.4243C12.3503 23.5497 11.4953 23.2204 10.8557 22.5581C10.2231 21.8887 9.8999 21.0082 9.8999 19.902V10.0974C9.8999 9.002 10.2197 8.11067 10.8557 7.45201C11.4987 6.77904 12.3503 6.44971 13.4243 6.44971H16.3752C17.4492 6.44971 18.3043 6.77904 18.9369 7.45201C19.5799 8.11425 19.8996 9.002 19.8996 10.0974V12.1163C19.8996 12.2989 19.8058 12.3955 19.6285 12.3955H16.5004C16.3231 12.3955 16.2292 12.2989 16.2292 12.1163V10.1833C16.2292 9.91481 16.1006 9.7752 15.833 9.7752H13.9631C13.6919 9.7752 13.5668 9.91481 13.5668 10.1833V19.8125C13.5668 20.0918 13.6954 20.2206 13.9631 20.2206H15.899C16.1597 20.2206 16.2953 20.0918 16.2953 19.8125V17.6719C16.2953 17.4894 16.3787 17.3927 16.5664 17.3927H19.6841C19.8718 17.3927 19.9552 17.4894 19.9552 17.6719V19.902H19.9587Z" fill="#33647E"/>
</g>
<defs>
<filter id="filter0_i_5266_9604" x="1.5" y="1.5" width="27" height="27" filterUnits="userSpaceOnUse" color-interpolation-filters="sRGB">
<feFlood flood-opacity="0" result="BackgroundImageFix"/>
<feBlend mode="normal" in="SourceGraphic" in2="BackgroundImageFix" result="shape"/>
<feColorMatrix in="SourceAlpha" type="matrix" values="0 0 0 0 0 0 0 0 0 0 0 0 0 0 0 0 0 0 127 0" result="hardAlpha"/>
<feOffset/>
<feGaussianBlur stdDeviation="1.5"/>
<feComposite in2="hardAlpha" operator="arithmetic" k2="-1" k3="1"/>
<feColorMatrix type="matrix" values="0 0 0 0 1 0 0 0 0 1 0 0 0 0 1 0 0 0 0.8 0"/>
<feBlend mode="lighten" in2="shape" result="effect1_innerShadow_5266_9604"/>
</filter>
<filter id="filter1_d_5266_9604" x="3.8999" y="1.94971" width="22.0588" height="29.1" filterUnits="userSpaceOnUse" color-interpolation-filters="sRGB">
<feFlood flood-opacity="0" result="BackgroundImageFix"/>
<feColorMatrix in="SourceAlpha" type="matrix" values="0 0 0 0 0 0 0 0 0 0 0 0 0 0 0 0 0 0 127 0" result="hardAlpha"/>
<feOffset dy="1.5"/>
<feGaussianBlur stdDeviation="3"/>
<feComposite in2="hardAlpha" operator="out"/>
<feColorMatrix type="matrix" values="0 0 0 0 0.2 0 0 0 0 0.392157 0 0 0 0 0.494118 0 0 0 0.3 0"/>
<feBlend mode="normal" in2="BackgroundImageFix" result="effect1_dropShadow_5266_9604"/>
<feBlend mode="normal" in="SourceGraphic" in2="effect1_dropShadow_5266_9604" result="shape"/>
</filter>
<linearGradient id="paint0_linear_5266_9604" x1="29.5161" y1="0.750001" x2="-6.01909" y2="15.4076" gradientUnits="userSpaceOnUse">
<stop stop-color="#F5F5F5"/>
<stop offset="0.5" stop-color="#E7E7E7"/>
<stop offset="1" stop-color="#E0E0E0"/>
</linearGradient>
<linearGradient id="paint1_linear_5266_9604" x1="28.0645" y1="2.175" x2="-3.91718" y2="15.3668" gradientUnits="userSpaceOnUse">
<stop stop-color="#F5F5F5"/>
<stop offset="1" stop-color="#E7E7E7"/>
</linearGradient>
</defs>
</svg>
