<svg width="32" height="30" viewBox="0 0 32 30" fill="none" xmlns="http://www.w3.org/2000/svg">
<path d="M1 9C1 4.02944 5.02944 0 10 0H22C26.9706 0 31 4.02944 31 9V21C31 25.9706 26.9706 30 22 30H10C5.02944 30 1 25.9706 1 21V9Z" fill="url(#paint0_linear_5266_9601)"/>
<g filter="url(#filter0_i_5266_9601)">
<rect x="2.5" y="1.5" width="27" height="27" rx="7.5" fill="url(#paint1_linear_5266_9601)"/>
</g>
<g filter="url(#filter1_d_5266_9601)">
<path fill-rule="evenodd" clip-rule="evenodd" d="M8.39116 8.59497H6.3999V21.3781H8.39116C12.1087 21.3781 15.1393 18.5077 15.1393 14.9866C15.1393 11.4654 12.1087 8.59497 8.39116 8.59497ZM23.6084 21.395H25.5997V8.61182H23.6084C19.8909 8.61182 16.8604 11.4823 16.8604 15.0034C16.8604 18.5245 19.8909 21.395 23.6084 21.395Z" fill="#666666"/>
</g>
<defs>
<filter id="filter0_i_5266_9601" x="2.5" y="1.5" width="27" height="27" filterUnits="userSpaceOnUse" color-interpolation-filters="sRGB">
<feFlood flood-opacity="0" result="BackgroundImageFix"/>
<feBlend mode="normal" in="SourceGraphic" in2="BackgroundImageFix" result="shape"/>
<feColorMatrix in="SourceAlpha" type="matrix" values="0 0 0 0 0 0 0 0 0 0 0 0 0 0 0 0 0 0 127 0" result="hardAlpha"/>
<feOffset/>
<feGaussianBlur stdDeviation="1.5"/>
<feComposite in2="hardAlpha" operator="arithmetic" k2="-1" k3="1"/>
<feColorMatrix type="matrix" values="0 0 0 0 1 0 0 0 0 1 0 0 0 0 1 0 0 0 0.8 0"/>
<feBlend mode="lighten" in2="shape" result="effect1_innerShadow_5266_9601"/>
</filter>
<filter id="filter1_d_5266_9601" x="0.399902" y="4.09497" width="31.1997" height="24.8" filterUnits="userSpaceOnUse" color-interpolation-filters="sRGB">
<feFlood flood-opacity="0" result="BackgroundImageFix"/>
<feColorMatrix in="SourceAlpha" type="matrix" values="0 0 0 0 0 0 0 0 0 0 0 0 0 0 0 0 0 0 127 0" result="hardAlpha"/>
<feOffset dy="1.5"/>
<feGaussianBlur stdDeviation="3"/>
<feComposite in2="hardAlpha" operator="out"/>
<feColorMatrix type="matrix" values="0 0 0 0 0.4 0 0 0 0 0.4 0 0 0 0 0.4 0 0 0 0.3 0"/>
<feBlend mode="normal" in2="BackgroundImageFix" result="effect1_dropShadow_5266_9601"/>
<feBlend mode="normal" in="SourceGraphic" in2="effect1_dropShadow_5266_9601" result="shape"/>
</filter>
<linearGradient id="paint0_linear_5266_9601" x1="30.5161" y1="0.750001" x2="-5.01909" y2="15.4076" gradientUnits="userSpaceOnUse">
<stop stop-color="#F5F5F5"/>
<stop offset="0.5" stop-color="#E7E7E7"/>
<stop offset="1" stop-color="#E0E0E0"/>
</linearGradient>
<linearGradient id="paint1_linear_5266_9601" x1="29.0645" y1="2.175" x2="-2.91718" y2="15.3668" gradientUnits="userSpaceOnUse">
<stop stop-color="#F5F5F5"/>
<stop offset="1" stop-color="#E7E7E7"/>
</linearGradient>
</defs>
</svg>
