<svg width="20" height="21" viewBox="0 0 20 21" fill="none" xmlns="http://www.w3.org/2000/svg">
<g id="club">
<path id="Rectangle 2417" d="M0 6C0 2.68629 2.68629 0 6 0H14C17.3137 0 20 2.68629 20 6V14C20 17.3137 17.3137 20 14 20H6C2.68629 20 0 17.3137 0 14V6Z" fill="url(#paint0_linear_5087_2836)"/>
<g id="Rectangle 2418" filter="url(#filter0_i_5087_2836)">
<rect x="1" y="1" width="18" height="18" rx="5" fill="url(#paint1_linear_5087_2836)"/>
</g>
<g id="icon">
<g id="Vector" filter="url(#filter1_d_5087_2836)">
<path d="M11.1057 4.2998C12.5158 4.2998 13.4419 5.28022 13.4419 6.74934V13.2503C13.4419 14.7224 12.5158 15.6998 11.1057 15.6998H6.7781C6.65294 15.6998 6.6001 15.6425 6.6001 15.5128V4.48684C6.6001 4.35712 6.65572 4.2998 6.7781 4.2998H11.1057ZM9.04479 6.53516V13.4705H10.7441C10.9249 13.4705 11.0056 13.383 11.0056 13.196V6.80967C11.0056 6.62264 10.9221 6.53516 10.7441 6.53516H9.04479Z" fill="#1F92FF"/>
</g>
</g>
</g>
<defs>
<filter id="filter0_i_5087_2836" x="1" y="1" width="18" height="18" filterUnits="userSpaceOnUse" color-interpolation-filters="sRGB">
<feFlood flood-opacity="0" result="BackgroundImageFix"/>
<feBlend mode="normal" in="SourceGraphic" in2="BackgroundImageFix" result="shape"/>
<feColorMatrix in="SourceAlpha" type="matrix" values="0 0 0 0 0 0 0 0 0 0 0 0 0 0 0 0 0 0 127 0" result="hardAlpha"/>
<feOffset/>
<feGaussianBlur stdDeviation="1"/>
<feComposite in2="hardAlpha" operator="arithmetic" k2="-1" k3="1"/>
<feColorMatrix type="matrix" values="0 0 0 0 1 0 0 0 0 1 0 0 0 0 1 0 0 0 0.8 0"/>
<feBlend mode="lighten" in2="shape" result="effect1_innerShadow_5087_2836"/>
</filter>
<filter id="filter1_d_5087_2836" x="2.6001" y="1.2998" width="14.8418" height="19.3999" filterUnits="userSpaceOnUse" color-interpolation-filters="sRGB">
<feFlood flood-opacity="0" result="BackgroundImageFix"/>
<feColorMatrix in="SourceAlpha" type="matrix" values="0 0 0 0 0 0 0 0 0 0 0 0 0 0 0 0 0 0 127 0" result="hardAlpha"/>
<feOffset dy="1"/>
<feGaussianBlur stdDeviation="2"/>
<feComposite in2="hardAlpha" operator="out"/>
<feColorMatrix type="matrix" values="0 0 0 0 0.121569 0 0 0 0 0.572549 0 0 0 0 1 0 0 0 0.3 0"/>
<feBlend mode="normal" in2="BackgroundImageFix" result="effect1_dropShadow_5087_2836"/>
<feBlend mode="normal" in="SourceGraphic" in2="effect1_dropShadow_5087_2836" result="shape"/>
</filter>
<linearGradient id="paint0_linear_5087_2836" x1="19.6774" y1="0.5" x2="-4.01272" y2="10.2717" gradientUnits="userSpaceOnUse">
<stop stop-color="#F5F5F5"/>
<stop offset="0.5" stop-color="#E7E7E7"/>
<stop offset="1" stop-color="#E0E0E0"/>
</linearGradient>
<linearGradient id="paint1_linear_5087_2836" x1="18.7097" y1="1.45" x2="-2.61145" y2="10.2445" gradientUnits="userSpaceOnUse">
<stop stop-color="#F5F5F5"/>
<stop offset="1" stop-color="#E7E7E7"/>
</linearGradient>
</defs>
</svg>
