<svg width="32" height="30" viewBox="0 0 32 30" fill="none" xmlns="http://www.w3.org/2000/svg">
<g id="club">
<path id="Rectangle 2415" d="M1 9C1 4.02944 5.02944 0 10 0H22C26.9706 0 31 4.02944 31 9V21C31 25.9706 26.9706 30 22 30H10C5.02944 30 1 25.9706 1 21V9Z" fill="url(#paint0_linear_5087_3179)"/>
<g id="Rectangle 2417" filter="url(#filter0_i_5087_3179)">
<rect x="2.5" y="1.5" width="27" height="27" rx="7.5" fill="url(#paint1_linear_5087_3179)"/>
</g>
<g id="icon">
<g id="Vector" filter="url(#filter1_d_5087_3179)">
<path d="M24.2047 11.7087L19.8764 13.6767L16.7991 7.99246C16.4436 7.33585 15.5556 7.33585 15.2001 7.99246L12.1228 13.6767L7.79453 11.7087C7.12229 11.2829 6.28964 11.886 6.41197 12.7099L7.71144 21.4391C7.78241 21.9172 8.16902 22.2692 8.62315 22.2692H23.3767C23.8308 22.2692 24.2174 21.9172 24.2884 21.4391L25.5878 12.7099C25.7102 11.8866 24.8775 11.2835 24.2047 11.7087Z" fill="#FFB700"/>
</g>
</g>
</g>
<defs>
<filter id="filter0_i_5087_3179" x="2.5" y="1.5" width="27" height="27" filterUnits="userSpaceOnUse" color-interpolation-filters="sRGB">
<feFlood flood-opacity="0" result="BackgroundImageFix"/>
<feBlend mode="normal" in="SourceGraphic" in2="BackgroundImageFix" result="shape"/>
<feColorMatrix in="SourceAlpha" type="matrix" values="0 0 0 0 0 0 0 0 0 0 0 0 0 0 0 0 0 0 127 0" result="hardAlpha"/>
<feOffset/>
<feGaussianBlur stdDeviation="1.5"/>
<feComposite in2="hardAlpha" operator="arithmetic" k2="-1" k3="1"/>
<feColorMatrix type="matrix" values="0 0 0 0 1 0 0 0 0 1 0 0 0 0 1 0 0 0 0.8 0"/>
<feBlend mode="lighten" in2="shape" result="effect1_innerShadow_5087_3179"/>
</filter>
<filter id="filter1_d_5087_3179" x="0.399902" y="3" width="31.2" height="26.7693" filterUnits="userSpaceOnUse" color-interpolation-filters="sRGB">
<feFlood flood-opacity="0" result="BackgroundImageFix"/>
<feColorMatrix in="SourceAlpha" type="matrix" values="0 0 0 0 0 0 0 0 0 0 0 0 0 0 0 0 0 0 127 0" result="hardAlpha"/>
<feOffset dy="1.5"/>
<feGaussianBlur stdDeviation="3"/>
<feComposite in2="hardAlpha" operator="out"/>
<feColorMatrix type="matrix" values="0 0 0 0 1 0 0 0 0 0.717647 0 0 0 0 0 0 0 0 0.2 0"/>
<feBlend mode="normal" in2="BackgroundImageFix" result="effect1_dropShadow_5087_3179"/>
<feBlend mode="normal" in="SourceGraphic" in2="effect1_dropShadow_5087_3179" result="shape"/>
</filter>
<linearGradient id="paint0_linear_5087_3179" x1="30.5161" y1="0.750001" x2="-5.01909" y2="15.4076" gradientUnits="userSpaceOnUse">
<stop stop-color="#F5F5F5"/>
<stop offset="0.5" stop-color="#E7E7E7"/>
<stop offset="1" stop-color="#E0E0E0"/>
</linearGradient>
<linearGradient id="paint1_linear_5087_3179" x1="29.0645" y1="2.175" x2="-2.91718" y2="15.3668" gradientUnits="userSpaceOnUse">
<stop stop-color="#F5F5F5"/>
<stop offset="1" stop-color="#E7E7E7"/>
</linearGradient>
</defs>
</svg>
