<svg width="30" height="31" viewBox="0 0 30 31" fill="none" xmlns="http://www.w3.org/2000/svg">
<path d="M0 9C0 4.02944 4.02944 0 9 0H21C25.9706 0 30 4.02944 30 9V21C30 25.9706 25.9706 30 21 30H9C4.02944 30 0 25.9706 0 21V9Z" fill="url(#paint0_linear_5191_12685)"/>
<g filter="url(#filter0_i_5191_12685)">
<rect x="1.5" y="1.5" width="27" height="27" rx="7.5" fill="url(#paint1_linear_5191_12685)"/>
</g>
<g filter="url(#filter1_d_5191_12685)">
<path d="M9 18.75H12V22.05C12 22.7127 11.4627 23.25 10.8 23.25H10.2C9.53726 23.25 9 22.7127 9 22.05V18.75Z" fill="#14B9CB"/>
<path d="M18 18.75H21V22.05C21 22.7127 20.4627 23.25 19.8 23.25H19.2C18.5373 23.25 18 22.7127 18 22.05V18.75Z" fill="#14B9CB"/>
<path d="M6 14.7C6 14.0373 6.53726 13.5 7.2 13.5H9.75V19.5H6V14.7Z" fill="#14B9CB"/>
<path d="M20.25 13.5H22.8C23.4627 13.5 24 14.0373 24 14.7V19.5H20.25V13.5Z" fill="#14B9CB"/>
<path d="M9 9.75C9 8.09315 10.3431 6.75 12 6.75H18C19.6569 6.75 21 8.09315 21 9.75V15.75H9V9.75Z" fill="#14B9CB"/>
<path d="M6 17.25H24V20.55C24 21.2127 23.4627 21.75 22.8 21.75H7.2C6.53726 21.75 6 21.2127 6 20.55V17.25Z" fill="#14B9CB"/>
</g>
<defs>
<filter id="filter0_i_5191_12685" x="1.5" y="1.5" width="27" height="27" filterUnits="userSpaceOnUse" color-interpolation-filters="sRGB">
<feFlood flood-opacity="0" result="BackgroundImageFix"/>
<feBlend mode="normal" in="SourceGraphic" in2="BackgroundImageFix" result="shape"/>
<feColorMatrix in="SourceAlpha" type="matrix" values="0 0 0 0 0 0 0 0 0 0 0 0 0 0 0 0 0 0 127 0" result="hardAlpha"/>
<feOffset/>
<feGaussianBlur stdDeviation="1.5"/>
<feComposite in2="hardAlpha" operator="arithmetic" k2="-1" k3="1"/>
<feColorMatrix type="matrix" values="0 0 0 0 1 0 0 0 0 1 0 0 0 0 1 0 0 0 0.8 0"/>
<feBlend mode="lighten" in2="shape" result="effect1_innerShadow_5191_12685"/>
</filter>
<filter id="filter1_d_5191_12685" x="0" y="2.25" width="30" height="28.5" filterUnits="userSpaceOnUse" color-interpolation-filters="sRGB">
<feFlood flood-opacity="0" result="BackgroundImageFix"/>
<feColorMatrix in="SourceAlpha" type="matrix" values="0 0 0 0 0 0 0 0 0 0 0 0 0 0 0 0 0 0 127 0" result="hardAlpha"/>
<feOffset dy="1.5"/>
<feGaussianBlur stdDeviation="3"/>
<feComposite in2="hardAlpha" operator="out"/>
<feColorMatrix type="matrix" values="0 0 0 0 0.0784314 0 0 0 0 0.72549 0 0 0 0 0.796078 0 0 0 0.3 0"/>
<feBlend mode="normal" in2="BackgroundImageFix" result="effect1_dropShadow_5191_12685"/>
<feBlend mode="normal" in="SourceGraphic" in2="effect1_dropShadow_5191_12685" result="shape"/>
</filter>
<linearGradient id="paint0_linear_5191_12685" x1="29.5161" y1="0.750001" x2="-6.01909" y2="15.4076" gradientUnits="userSpaceOnUse">
<stop stop-color="#F5F5F5"/>
<stop offset="0.5" stop-color="#E7E7E7"/>
<stop offset="1" stop-color="#E0E0E0"/>
</linearGradient>
<linearGradient id="paint1_linear_5191_12685" x1="28.0645" y1="2.175" x2="-3.91718" y2="15.3668" gradientUnits="userSpaceOnUse">
<stop stop-color="#F5F5F5"/>
<stop offset="1" stop-color="#E7E7E7"/>
</linearGradient>
</defs>
</svg>
