<svg width="30" height="31" viewBox="0 0 30 31" fill="none" xmlns="http://www.w3.org/2000/svg">
<path d="M0 9C0 4.02944 4.02944 0 9 0H21C25.9706 0 30 4.02944 30 9V21C30 25.9706 25.9706 30 21 30H9C4.02944 30 0 25.9706 0 21V9Z" fill="url(#paint0_linear_5266_9600)"/>
<g filter="url(#filter0_i_5266_9600)">
<rect x="1.5" y="1.5" width="27" height="27" rx="7.5" fill="url(#paint1_linear_5266_9600)"/>
</g>
<g filter="url(#filter1_d_5266_9600)">
<path d="M11.0999 15.75V10.7139C11.0999 8.52454 12.8414 6.75 14.989 6.75C17.1366 6.75 18.8777 8.52454 18.8782 10.7139V15.75" stroke="#9764FF" stroke-width="1.95"/>
<path d="M7.5 12.1497C7.5 11.487 8.03726 10.9497 8.7 10.9497H21.3C21.9627 10.9497 22.5 11.487 22.5 12.1497V21.7497C22.5 22.4124 21.9627 22.9497 21.3 22.9497H8.7C8.03726 22.9497 7.5 22.4124 7.5 21.7497V12.1497Z" fill="#9764FF"/>
</g>
<defs>
<filter id="filter0_i_5266_9600" x="1.5" y="1.5" width="27" height="27" filterUnits="userSpaceOnUse" color-interpolation-filters="sRGB">
<feFlood flood-opacity="0" result="BackgroundImageFix"/>
<feBlend mode="normal" in="SourceGraphic" in2="BackgroundImageFix" result="shape"/>
<feColorMatrix in="SourceAlpha" type="matrix" values="0 0 0 0 0 0 0 0 0 0 0 0 0 0 0 0 0 0 127 0" result="hardAlpha"/>
<feOffset/>
<feGaussianBlur stdDeviation="1.5"/>
<feComposite in2="hardAlpha" operator="arithmetic" k2="-1" k3="1"/>
<feColorMatrix type="matrix" values="0 0 0 0 1 0 0 0 0 1 0 0 0 0 1 0 0 0 0.8 0"/>
<feBlend mode="lighten" in2="shape" result="effect1_innerShadow_5266_9600"/>
</filter>
<filter id="filter1_d_5266_9600" x="1.5" y="1.27502" width="27" height="29.1747" filterUnits="userSpaceOnUse" color-interpolation-filters="sRGB">
<feFlood flood-opacity="0" result="BackgroundImageFix"/>
<feColorMatrix in="SourceAlpha" type="matrix" values="0 0 0 0 0 0 0 0 0 0 0 0 0 0 0 0 0 0 127 0" result="hardAlpha"/>
<feOffset dy="1.5"/>
<feGaussianBlur stdDeviation="3"/>
<feComposite in2="hardAlpha" operator="out"/>
<feColorMatrix type="matrix" values="0 0 0 0 0.592157 0 0 0 0 0.392157 0 0 0 0 1 0 0 0 0.3 0"/>
<feBlend mode="normal" in2="BackgroundImageFix" result="effect1_dropShadow_5266_9600"/>
<feBlend mode="normal" in="SourceGraphic" in2="effect1_dropShadow_5266_9600" result="shape"/>
</filter>
<linearGradient id="paint0_linear_5266_9600" x1="29.5161" y1="0.750001" x2="-6.01909" y2="15.4076" gradientUnits="userSpaceOnUse">
<stop stop-color="#F5F5F5"/>
<stop offset="0.5" stop-color="#E7E7E7"/>
<stop offset="1" stop-color="#E0E0E0"/>
</linearGradient>
<linearGradient id="paint1_linear_5266_9600" x1="28.0645" y1="2.175" x2="-3.91718" y2="15.3668" gradientUnits="userSpaceOnUse">
<stop stop-color="#F5F5F5"/>
<stop offset="1" stop-color="#E7E7E7"/>
</linearGradient>
</defs>
</svg>
