<svg width="20" height="20" viewBox="0 0 20 20" fill="none" xmlns="http://www.w3.org/2000/svg">
<g clip-path="url(#clip0_12_56)">
<g clip-path="url(#clip1_12_56)">
<path d="M17.7454 20H2.25462C1.0086 20 0 18.9914 0 17.7454V2.25462C0 1.0102 1.0102 0 2.25462 0H17.7454C18.9898 0 20 1.0102 20 2.25462V17.7454C20 18.9898 18.9898 20 17.7454 20" fill="#E9B62E"/>
<path d="M4.3276 16.8913V6.95028H3.22658L4.65105 3.10867H7.41237V16.8913H4.3276Z" fill="white"/>
<path d="M16.3034 3.10867H8.76514C8.59465 3.10867 8.45762 3.24729 8.45762 3.41619V7.58126H11.4707V5.70427H13.5994V7.36297L8.34927 14.8502V16.8722H16.5758V14.1826H12.175L16.0166 8.78904C16.1377 8.62014 16.2333 8.47355 16.305 8.34608C16.3767 8.2202 16.4372 8.09751 16.485 7.97642C16.5328 7.85691 16.5663 7.72466 16.5838 7.57967C16.6013 7.43467 16.6109 7.26099 16.6109 7.05704V3.41619C16.6109 3.2457 16.4723 3.10867 16.3034 3.10867Z" fill="white"/>
</g>
</g>
<defs>
<clipPath id="clip0_12_56">
<rect width="20" height="20" fill="white"/>
</clipPath>
<clipPath id="clip1_12_56">
<rect width="20" height="20" fill="white"/>
</clipPath>
</defs>
</svg>
