<svg width="20" height="20" viewBox="0 0 20 20" fill="none" xmlns="http://www.w3.org/2000/svg">
<g clip-path="url(#clip0_12_62)">
<g clip-path="url(#clip1_12_62)">
<path d="M17.7454 20H2.25462C1.0102 20 0 18.9914 0 17.7454V2.25462C0 1.0102 1.0102 0 2.25462 0H17.7454C18.9914 0 20 1.0102 20 2.25462V17.7454C20 18.9898 18.9914 20 17.7454 20" fill="#656666"/>
<path d="M1.78776 13.6903C1.69375 13.6903 1.65073 13.6488 1.65073 13.5532V5.46846C1.65073 5.37445 1.69215 5.33143 1.78776 5.33143H6.23645C6.33046 5.33143 6.37348 5.37285 6.37348 5.46846V13.5548C6.37348 13.6488 6.33205 13.6918 6.23645 13.6918H1.78776V13.6903ZM4.77373 6.73041H3.24888V12.2929H4.77373V6.73041ZM9.09496 14.5013C9.09496 14.5953 9.05353 14.6383 8.95793 14.6383H7.5701C7.47609 14.6383 7.43307 14.5969 7.43307 14.5013V5.20555C7.43307 5.11154 7.4745 5.06852 7.5701 5.06852H8.95793C9.05194 5.06852 9.09496 5.10995 9.09496 5.20555V14.5013Z" fill="white"/>
<path d="M15.478 5.24698C15.572 5.24698 15.615 5.2884 15.615 5.38401V6.50893C15.615 6.60294 15.5736 6.64596 15.478 6.64596H13.9739V6.877C13.9739 7.32951 14.0153 7.59242 14.3005 7.84417L15.709 9.02167C15.7823 9.08541 15.7935 9.14755 15.7935 9.25271V10.1147C15.7935 10.2087 15.7521 10.2518 15.6565 10.2518H14.6781C14.5618 10.2518 14.5315 10.231 14.4471 10.1577L13.123 9.00096L11.7033 10.3155C11.6189 10.3888 11.587 10.4095 11.4723 10.4095H10.4939C10.3999 10.4095 10.3569 10.3681 10.3569 10.2725V9.41046C10.3569 9.30529 10.3681 9.24156 10.4414 9.17942L11.9551 7.84417C12.2387 7.58127 12.2817 7.32951 12.2817 6.877V6.64596H10.7154C10.6214 6.64596 10.5784 6.60453 10.5784 6.50893V5.38401C10.5784 5.29 10.6198 5.24698 10.7154 5.24698H15.4796H15.478ZM16.4452 14.9315H13.4066C12.1558 14.9315 11.5041 14.2479 11.5041 13.1963V12.4283C11.5041 11.3767 12.1558 10.6931 13.4066 10.6931H16.4452C17.696 10.6931 18.3493 11.3767 18.3493 12.4283V13.1963C18.3493 14.2479 17.6976 14.9315 16.4452 14.9315V14.9315ZM13.7317 13.5325H16.1185C16.5073 13.5325 16.7288 13.3636 16.7288 12.9653V12.6609C16.7288 12.261 16.5073 12.0937 16.1185 12.0937H13.7317C13.3429 12.0937 13.1214 12.2626 13.1214 12.6609V12.9653C13.1214 13.3652 13.3429 13.5325 13.7317 13.5325ZM18.2425 10.1992C18.2425 10.2932 18.2011 10.3362 18.1055 10.3362H16.7176C16.6236 10.3362 16.5806 10.2948 16.5806 10.1992V8.40185H15.2549C15.1609 8.40185 15.1179 8.36042 15.1179 8.26482V7.18133C15.1179 7.08732 15.1593 7.0443 15.2549 7.0443H16.5806V5.20396C16.5806 5.10995 16.622 5.06693 16.7176 5.06693H18.1055C18.1995 5.06693 18.2425 5.10835 18.2425 5.20396V10.1992V10.1992Z" fill="white"/>
</g>
</g>
<defs>
<clipPath id="clip0_12_62">
<rect width="20" height="20" fill="white"/>
</clipPath>
<clipPath id="clip1_12_62">
<rect width="20" height="20" fill="white"/>
</clipPath>
</defs>
</svg>
