<svg width="12" height="7" viewBox="0 0 12 7" fill="none" xmlns="http://www.w3.org/2000/svg">
<g clip-path="url(#clip0_9521_39741)">
<mask id="path-1-inside-1_9521_39741" fill="white">
<path d="M4.48149 0.771599C5.27968 -0.159624 6.72032 -0.159625 7.51851 0.771598L18 13H-6L4.48149 0.771599Z"/>
</mask>
<path d="M4.48149 0.771599C5.27968 -0.159624 6.72032 -0.159625 7.51851 0.771598L18 13H-6L4.48149 0.771599Z" fill="#F5F5F5"/>
<path d="M18 13L18.7593 12.3492L20.1742 14H18V13ZM-6 13V14H-8.17422L-6.75926 12.3492L-6 13ZM7.51851 0.771598L6.75926 1.42239L7.51851 0.771598ZM4.48149 0.771599L5.24074 1.42239L4.48149 0.771599ZM8.27777 0.120807L18.7593 12.3492L17.2407 13.6508L6.75926 1.42239L8.27777 0.120807ZM18 14H-6V12H18V14ZM-6.75926 12.3492L3.72223 0.120808L5.24074 1.42239L-5.24074 13.6508L-6.75926 12.3492ZM6.75926 1.42239C6.36016 0.956779 5.63984 0.956779 5.24074 1.42239L3.72223 0.120808C4.91952 -1.27603 7.08048 -1.27603 8.27777 0.120807L6.75926 1.42239Z" fill="#E7E7E7" mask="url(#path-1-inside-1_9521_39741)"/>
</g>
<defs>
<clipPath id="clip0_9521_39741">
<rect width="12" height="7" fill="white"/>
</clipPath>
</defs>
</svg>
